<?xml version="1.0" encoding="UTF-8" standalone="no"?>
<svg
   width="64"
   height="64"
   version="1"
   id="svg16"
   sodipodi:docname="MCP6.svg"
   xml:space="preserve"
   inkscape:version="1.2.1 (9c6d41e410, 2022-07-14, custom)"
   xmlns:inkscape="http://www.inkscape.org/namespaces/inkscape"
   xmlns:sodipodi="http://sodipodi.sourceforge.net/DTD/sodipodi-0.dtd"
   xmlns:xlink="http://www.w3.org/1999/xlink"
   xmlns="http://www.w3.org/2000/svg"
   xmlns:svg="http://www.w3.org/2000/svg"><defs
     id="defs20"><linearGradient
       inkscape:collect="always"
       id="linearGradient3131"><stop
         style="stop-color:#ffffff;stop-opacity:1;"
         offset="0"
         id="stop3127" /><stop
         style="stop-color:#afb4b7;stop-opacity:1;"
         offset="1"
         id="stop3129" /></linearGradient><linearGradient
       inkscape:collect="always"
       id="linearGradient1748"><stop
         style="stop-color:#ffffff;stop-opacity:1"
         offset="0"
         id="stop1744" /><stop
         style="stop-color:#8f9396;stop-opacity:1;"
         offset="1"
         id="stop1746" /></linearGradient><linearGradient
       inkscape:collect="always"
       xlink:href="#linearGradient1748"
       id="linearGradient8509"
       gradientUnits="userSpaceOnUse"
       gradientTransform="matrix(-0.4781159,-1.6309027,1.6309027,-0.4781159,375.92231,422.20864)"
       x1="267.54312"
       y1="-129.29442"
       x2="287.98788"
       y2="-129.29442" /><linearGradient
       inkscape:collect="always"
       xlink:href="#linearGradient3131"
       id="linearGradient8513"
       gradientUnits="userSpaceOnUse"
       gradientTransform="matrix(0.55663832,2.0429137,-2.0429137,0.55663832,-386.50022,-464.46392)"
       x1="267.54312"
       y1="-129.29442"
       x2="287.98788"
       y2="-129.29442" /><linearGradient
       inkscape:collect="always"
       xlink:href="#linearGradient3131"
       id="linearGradient8515"
       gradientUnits="userSpaceOnUse"
       gradientTransform="matrix(1.8666284,-0.00786928,0.00786928,1.8666284,-73.239179,3.5345463)"
       x1="48.298626"
       y1="2.523932"
       x2="61.253441"
       y2="29.327581" /></defs><sodipodi:namedview
     id="namedview18"
     pagecolor="#505050"
     bordercolor="#eeeeee"
     borderopacity="1"
     inkscape:showpageshadow="0"
     inkscape:pageopacity="0"
     inkscape:pagecheckerboard="0"
     inkscape:deskcolor="#505050"
     showgrid="false"
     showguides="true"
     inkscape:zoom="4"
     inkscape:cx="55.875"
     inkscape:cy="95.5"
     inkscape:window-width="1914"
     inkscape:window-height="1047"
     inkscape:window-x="1923"
     inkscape:window-y="3"
     inkscape:window-maximized="1"
     inkscape:current-layer="svg16" /><path
     id="path10605"
     style="opacity:0.2;fill:#000000;fill-opacity:1;fill-rule:evenodd;stroke-width:2.58524;stroke-linecap:round;stroke-linejoin:round"
     d="M 32.25434,4.0156073 V 16.910138 c 4.033117,-0.0013 7.713325,1.581665 10.431641,4.175782 2.797842,2.67003 4.5763,6.40628 4.673828,10.57812 0.195035,8.34369 -6.410233,15.2659 -14.753906,15.46094 C 28.434098,47.22248 24.61854,45.62119 21.820747,42.95115 19.090085,40.34529 17.334256,36.72074 17.16059,32.6699 H 4.266059 c 0.01539,0.82774 0.05908,1.64871 0.144531,2.45703 0.0671,0.63308 0.16364,1.25715 0.271485,1.87696 l 5.25,1.5664 c 0.05714,0.19955 0.113406,0.39842 0.175781,0.59571 0.230421,0.72994 0.496703,1.44569 0.794922,2.14258 0.216605,0.50615 0.454487,0.99939 0.705078,1.48632 l -2.859375,4.58008 c 0.124049,0.19208 0.244345,0.3874 0.373047,0.57617 0.50841,0.74578 1.053025,1.46632 1.628906,2.15821 0.352716,0.42374 0.719117,0.83227 1.095703,1.23437 l 5.292969,-1.5293 c 0.1521,0.13121 0.303404,0.26528 0.458984,0.39258 0.578426,0.47327 1.182016,0.91712 1.804688,1.33399 0.375788,0.25158 0.757637,0.49079 1.148437,0.7207 l 0.06836,5.41406 c 0.302885,0.13955 0.605488,0.27922 0.914062,0.40821 0.842444,0.35214 1.706344,0.66739 2.587891,0.9375 0.467602,0.1433 0.942349,0.27338 1.419922,0.39257 l 3.636719,-4.1582 c 0.299238,0.0409 0.601586,0.0799 0.904296,0.10938 0.785029,0.0764 1.579082,0.11277 2.384766,0.10937 0.195715,-7.6e-4 0.389503,-0.01 0.583984,-0.0156 L 36.057075,60 c 0.70669,-0.0926 1.406692,-0.20173 2.095703,-0.3457 0.914367,-0.19111 1.812164,-0.42562 2.691406,-0.70313 0.148933,-0.0471 0.293529,-0.10495 0.441406,-0.15429 l 0.806641,-5.44727 c 0.504879,-0.23178 1.005566,-0.47429 1.490234,-0.74023 0.596418,-0.32727 1.173106,-0.68418 1.736328,-1.06055 l 5.013672,2.21289 c 0.0046,-0.004 0.01026,-0.006 0.01367,-0.01 0.691889,-0.5759 1.356919,-1.18163 1.990235,-1.82031 0.633324,-0.63869 1.232675,-1.30915 1.802734,-2.00586 0.0044,-0.005 0.0078,-0.008 0.0098,-0.0137 l -2.25586,-4.99414 c 0.371623,-0.56637 0.724658,-1.14497 1.046875,-1.74414 0.261826,-0.48689 0.499046,-0.98927 0.726563,-1.49609 l 5.441406,-0.85352 c 0.04805,-0.14829 0.102637,-0.29403 0.148437,-0.44336 0.270124,-0.88156 0.498216,-1.78136 0.681641,-2.69726 0.138204,-0.69027 0.241472,-1.39219 0.328125,-2.09961 l -4.568359,-2.9668 c 0.0051,-0.19453 0.01252,-0.38834 0.01172,-0.58398 -0.0034,-0.80571 -0.04599,-1.60041 -0.128907,-2.38477 -0.03226,-0.30243 -0.07411,-0.60149 -0.117187,-0.90039 l 4.126953,-3.67383 C 59.467058,24.59741 59.333299,24.1243 59.186014,23.65795 58.908505,22.77873 58.586271,21.9173 58.22703,21.07787 58.095381,20.77036 57.953137,20.46942 57.811014,20.16771 l -5.416016,-0.0234 c -0.233217,-0.38884 -0.473786,-0.76891 -0.728515,-1.14257 -0.422102,-0.619136 -0.871506,-1.218563 -1.34961,-1.792974 -0.128534,-0.154507 -0.264009,-0.303994 -0.396484,-0.455078 l 1.484342,-5.304487 C 50.999493,11.076015 50.587273,10.712368 50.16059,10.363263 49.463873,9.793206 48.738721,9.2540393 47.988715,8.7519353 47.798843,8.6247993 47.603686,8.5053663 47.41059,8.3827943 L 42.85395,11.283185 C 42.364931,11.036705 41.869703,10.8002 41.361762,10.587872 40.662384,10.295521 39.945188,10.036728 39.213325,9.812482 39.01551,9.751882 38.815665,9.6980113 38.615669,9.6425603 L 37.00434,4.4042793 c -0.621406,-0.103032 -1.245271,-0.194208 -1.878906,-0.25586 -0.943658,-0.09181 -1.902624,-0.136697 -2.871094,-0.132812 z" /><path
     id="path10607"
     style="opacity:0.2;fill:#000000;fill-opacity:1;fill-rule:evenodd;stroke-width:7.0715;stroke-linecap:round;stroke-linejoin:round"
     d="m 35.81046,19.30691 c -0.436841,0.10188 -1.192189,1.67932 -1.537109,1.61914 -0.367896,-0.0642 -0.741588,-0.11259 -1.119141,-0.14062 -0.297296,-0.0221 -0.598284,-0.0287 -0.90039,-0.0273 v 2.17579 c 4.517311,-0.004 8.43846,3.34938 9.017578,7.94726 0.313652,2.49022 -0.411501,4.87348 -1.837891,6.71094 -1.426356,1.83746 -3.554712,3.12971 -6.044921,3.44336 -4.980442,0.6273 -9.526995,-2.90042 -10.154297,-7.88086 -0.02043,-0.16222 -0.03714,-0.32318 -0.04883,-0.48438 h -2.3125 c 0.01465,0.25611 0.03579,0.51287 0.06836,0.77149 0.04857,0.3856 0.117328,0.76407 0.203125,1.13476 0.086,0.37068 -1.68489,1.29995 -1.542969,1.71485 0.141961,0.41489 0.303693,0.8193 0.484375,1.21289 0.180691,0.39358 0.380695,0.77612 0.597656,1.14648 0.216972,0.37036 2.07898,-0.34933 2.292969,-0.0547 0.214018,0.29465 0.442882,0.57806 0.683594,0.84961 0.240692,0.27156 0.494491,0.53052 0.759766,0.77735 0.265263,0.24683 0.542381,0.4807 0.830078,0.70117 0.287705,0.22047 0.586543,0.42861 0.894531,0.62109 0.308018,0.19248 -0.315749,2.06896 0.06641,2.25977 0.38215,0.19081 0.772869,0.36339 1.173828,0.51758 0.400942,0.15419 0.811262,0.28864 1.228516,0.40429 0.417241,0.11566 1.251226,-1.68137 1.619141,-1.61718 0.367894,0.0642 0.741599,0.11259 1.11914,0.14062 0.377552,0.028 0.759454,0.0371 1.144531,0.0273 0.385069,-0.01 0.773617,-0.0387 1.164063,-0.0879 0.390443,-0.0492 0.772968,-0.11709 1.148437,-0.20312 0.375462,-0.086 1.310079,1.65909 1.730469,1.51758 0.420391,-0.14152 0.831543,-0.30268 1.230469,-0.48242 0.398923,-0.17975 0.786568,-0.37825 1.162109,-0.59375 0.375533,-0.21551 -0.34771,-2.05328 -0.04883,-2.26563 0.298886,-0.21235 0.585723,-0.43908 0.861328,-0.67773 0.275606,-0.23866 0.540358,-0.48911 0.791016,-0.75196 0.250658,-0.26284 0.486899,-0.53734 0.710937,-0.82226 0.224049,-0.28493 0.435088,-0.58182 0.63086,-0.88672 0.195773,-0.3049 2.092813,0.30588 2.287109,-0.0723 0.194327,-0.37815 0.371997,-0.7655 0.529297,-1.16211 0.1573,-0.39661 0.293761,-0.80225 0.412109,-1.21484 0.118337,-0.41259 -1.696959,-1.23202 -1.630859,-1.5957 0.06612,-0.36369 0.114985,-0.73237 0.144531,-1.10547 0.02951,-0.3731 0.03992,-0.75045 0.03125,-1.13086 -0.0086,-0.38042 -0.03737,-0.76283 -0.08594,-1.14844 -0.04857,-0.3856 -0.115375,-0.76602 -0.201172,-1.13672 -0.086,-0.37067 1.682946,-1.29799 1.541015,-1.71289 -0.141958,-0.41489 -0.303695,-0.8193 -0.484374,-1.21289 -0.180692,-0.39358 -0.380694,-0.77612 -0.597657,-1.14648 -0.216972,-0.37036 -2.078961,0.34933 -2.292969,0.0547 -0.214007,-0.29464 -0.442881,-0.57805 -0.683593,-0.8496 -0.240702,-0.27156 -0.494491,-0.53052 -0.759766,-0.77735 -0.265265,-0.24683 -0.542361,-0.4807 -0.830078,-0.70117 -0.287697,-0.22047 -0.584579,-0.42861 -0.892578,-0.62109 -0.308018,-0.19249 0.315739,-2.06896 -0.06641,-2.25977 -0.382161,-0.19081 -0.774821,-0.36339 -1.175782,-0.51758 -0.400949,-0.15418 -0.811274,-0.28864 -1.228515,-0.40429 -0.02608,-0.007 -0.05291,-0.009 -0.08203,-0.002 z" /><path
     id="path10609"
     style="font-size:140.705px;line-height:1.25;letter-spacing:0px;word-spacing:0px;opacity:0.2;fill:#000000;fill-rule:evenodd;stroke-width:1.19381;stroke-linecap:round;stroke-linejoin:round;paint-order:stroke fill markers"
     d="m 6.119592,4.1486533 c -1.322723,0 -2.387596,1.064873 -2.387596,2.387606 V 28.02467 c 0,1.32272 1.064873,2.3876 2.387596,2.3876 h 4.775213 V 11.311451 h 9.550397 V 4.1486533 Z m 16.713216,0 V 30.41227 h 4.775212 c 1.322724,0 2.387587,-1.06488 2.387587,-2.3876 V 6.5362593 c 0,-1.322733 -1.064863,-2.387606 -2.387587,-2.387606 z M 13.28241,13.699058 V 30.41227 h 7.162792 V 13.699058 Z"
     inkscape:label="M" /><path
     id="path8493"
     style="fill:url(#linearGradient8515);fill-opacity:1;fill-rule:evenodd;stroke-width:2.58524;stroke-linecap:round;stroke-linejoin:round"
     d="M 32.25434,3.0156073 V 15.910138 c 4.033117,-0.0013 7.713325,1.581665 10.431641,4.175782 2.797842,2.67003 4.5763,6.40628 4.673828,10.57812 0.195035,8.34369 -6.410233,15.2659 -14.753906,15.46094 C 28.434098,46.22248 24.61854,44.62119 21.820747,41.95115 19.090085,39.34529 17.334256,35.72074 17.16059,31.6699 H 4.266059 c 0.01539,0.82774 0.05908,1.64871 0.144531,2.45703 0.0671,0.63308 0.16364,1.25715 0.271485,1.87696 l 5.25,1.5664 c 0.05714,0.19955 0.113406,0.39842 0.175781,0.59571 0.230421,0.72994 0.496703,1.44569 0.794922,2.14258 0.216605,0.50615 0.454487,0.99939 0.705078,1.48632 l -2.859375,4.58008 c 0.124049,0.19208 0.244345,0.3874 0.373047,0.57617 0.50841,0.74578 1.053025,1.46632 1.628906,2.15821 0.352716,0.42374 0.719117,0.83227 1.095703,1.23437 l 5.292969,-1.5293 c 0.1521,0.13121 0.303404,0.26528 0.458984,0.39258 0.578426,0.47327 1.182016,0.91712 1.804688,1.33399 0.375788,0.25158 0.757637,0.49079 1.148437,0.7207 l 0.06836,5.41406 c 0.302885,0.13955 0.605488,0.27922 0.914062,0.40821 0.842444,0.35214 1.706344,0.66739 2.587891,0.9375 0.467602,0.1433 0.942349,0.27338 1.419922,0.39257 l 3.636719,-4.1582 c 0.299238,0.0409 0.601586,0.0799 0.904296,0.10938 0.785029,0.0764 1.579082,0.11277 2.384766,0.10937 0.195715,-7.6e-4 0.389503,-0.01002 0.583984,-0.01562 l 3.00586,4.54101 c 0.70669,-0.0926 1.406692,-0.20173 2.095703,-0.3457 0.914367,-0.19111 1.812164,-0.42562 2.691406,-0.70313 0.148933,-0.0471 0.293529,-0.10495 0.441406,-0.15429 l 0.806641,-5.44727 c 0.504879,-0.23178 1.005566,-0.47429 1.490234,-0.74023 0.596418,-0.32727 1.173106,-0.68418 1.736328,-1.06055 l 5.013672,2.21289 c 0.0046,-0.004 0.01026,-0.0058 0.01367,-0.0098 0.691889,-0.5759 1.356919,-1.18163 1.990235,-1.82031 0.633324,-0.63869 1.232675,-1.30915 1.802734,-2.00586 0.0044,-0.005 0.0078,-0.008 0.0098,-0.01367 l -2.25586,-4.99414 c 0.371623,-0.56637 0.724658,-1.14497 1.046875,-1.74414 0.261826,-0.48689 0.499046,-0.98927 0.726563,-1.49609 l 5.441406,-0.85352 c 0.04805,-0.14829 0.102637,-0.29403 0.148437,-0.44336 0.270124,-0.88156 0.498216,-1.78136 0.681641,-2.69726 0.138204,-0.69027 0.241472,-1.39219 0.328125,-2.09961 l -4.568359,-2.9668 c 0.0051,-0.19453 0.01252,-0.38834 0.01172,-0.58398 -0.0034,-0.80571 -0.04599,-1.60041 -0.128907,-2.38477 -0.03226,-0.30243 -0.07411,-0.60149 -0.117187,-0.90039 l 4.126953,-3.67383 C 59.467058,23.59762 59.333299,23.12451 59.186014,22.65816 58.908505,21.77894 58.586271,20.91751 58.22703,20.07808 58.095381,19.77057 57.953137,19.46963 57.811014,19.16792 l -5.416016,-0.02344 c -0.233217,-0.38884 -0.473786,-0.768906 -0.728515,-1.142575 -0.422102,-0.619131 -0.871506,-1.218558 -1.34961,-1.792969 -0.128534,-0.154507 -0.264009,-0.303994 -0.396484,-0.455078 l 1.484375,-5.304687 C 50.999493,10.076015 50.587273,9.7123683 50.16059,9.3632633 49.463873,8.7932063 48.738721,8.2540393 47.988715,7.7519353 47.798843,7.6247993 47.603686,7.5053663 47.41059,7.3827943 L 42.85395,10.283185 C 42.364931,10.036705 41.869703,9.8002 41.361762,9.5878723 c -0.699378,-0.292351 -1.416574,-0.551144 -2.148437,-0.77539 -0.197815,-0.0606 -0.39766,-0.114471 -0.597656,-0.169922 L 37.00434,3.4042793 c -0.621406,-0.103032 -1.245271,-0.194208 -1.878906,-0.25586 -0.943658,-0.09181 -1.902624,-0.136697 -2.871094,-0.132812 z" /><path
     id="path8495"
     style="opacity:0.2;fill:#000000;fill-opacity:1;fill-rule:evenodd;stroke-width:2.58524;stroke-linecap:round;stroke-linejoin:round"
     d="m 46.420356,14.587872 -4.654297,4.693358 c 0.316385,0.25672 0.625346,0.52357 0.919922,0.80469 2.797842,2.67003 4.5763,6.40628 4.673828,10.57812 0.195035,8.34369 -6.410233,15.2659 -14.753906,15.46094 -4.171805,0.0975 -7.987363,-1.50379 -10.785156,-4.17383 -0.434856,-0.41498 -0.841457,-0.86004 -1.22461,-1.32422 l -4.660156,4.69922 11.275391,11.18164 1.966797,-2.25 c 0.299219,0.0409 0.60159,0.07995 0.904296,0.10938 0.785003,0.0764 1.579059,0.11275 2.384766,0.10937 0.195672,-8.7e-4 0.389516,-0.01217 0.583984,-0.01757 l 3.003907,4.54101 c 0.706648,-0.0926 1.40661,-0.19977 2.095703,-0.34375 0.914337,-0.1911 1.812155,-0.42558 2.691406,-0.70312 0.148919,-0.047 0.295517,-0.10682 0.443359,-0.15625 l 0.808594,-5.44532 c 0.504861,-0.23178 1.0036,-0.47429 1.488281,-0.74023 0.596418,-0.32727 1.171176,-0.68416 1.734375,-1.06055 l 5.015625,2.21094 c 0.0046,-0.004 0.01067,-0.0058 0.01563,-0.0078 0.691888,-0.57593 1.356919,-1.18163 1.990235,-1.82031 0.633314,-0.63868 1.232696,-1.3072 1.802734,-2.00391 0.0044,-0.005 0.0045,-0.01093 0.0078,-0.01563 l -2.251953,-4.99609 c 0.371642,-0.56637 0.724671,-1.14496 1.046874,-1.74414 0.261841,-0.48689 0.499063,-0.98733 0.726563,-1.49414 l 5.439453,-0.85352 c 0.04796,-0.14827 0.104708,-0.29596 0.150391,-0.44531 0.270116,-0.88154 0.498237,-1.78135 0.68164,-2.69726 0.138276,-0.69024 0.23953,-1.39024 0.326172,-2.09766 l -4.566406,-2.9668 c 0.0051,-0.19452 0.01433,-0.38833 0.01367,-0.58398 -0.0034,-0.80573 -0.04808,-1.59847 -0.130859,-2.38281 -0.03196,-0.30245 -0.07361,-0.60544 -0.117188,-0.9043 l 2.226562,-1.98242 z" /><path
     id="path8497"
     style="fill:url(#linearGradient8513);fill-opacity:1;fill-rule:evenodd;stroke-width:6.54356;stroke-linecap:round;stroke-linejoin:round;paint-order:stroke fill markers"
     d="m 32.676215,9.3749823 a 21.644775,21.644775 0 0 0 -0.421875,0.021484 v 6.5136717 c 4.033117,-0.0013 7.713325,1.581665 10.431641,4.175782 2.797842,2.67003 4.5763,6.40628 4.673828,10.57812 0.195035,8.34369 -6.410233,15.2659 -14.753906,15.46094 C 28.434098,46.22248 24.61854,44.62119 21.820747,41.95115 19.090085,39.34529 17.334256,35.72074 17.16059,31.6699 H 10.668403 A 21.644775,21.644775 0 0 0 11.369575,36.70701 21.644775,21.644775 0 0 0 37.94184,51.90037 21.644775,21.644775 0 0 0 53.1352,25.32615 21.644775,21.644775 0 0 0 32.676215,9.3749823 Z" /><path
     id="path8501"
     style="fill:url(#linearGradient8509);fill-opacity:1;fill-rule:evenodd;stroke-width:5.25226;stroke-linecap:round;stroke-linejoin:round;paint-order:stroke fill markers"
     d="m 32.252345,13.645178 -10e-7,1.26604 c 4.299868,-0.0014 8.223485,1.686273 11.121589,4.451966 2.982892,2.846634 4.881059,6.829998 4.985038,11.277762 C 48.566904,39.536484 41.522683,46.916541 32.62716,47.124468 28.179433,47.228411 24.111514,45.519137 21.128675,42.672501 18.217393,39.89427 16.345432,36.03212 16.160297,31.713336 h -1.232725 a 17.37336,17.37336 0 0 0 0.651762,4.191673 17.37336,17.37336 0 0 0 21.56018,11.783772 17.37336,17.37336 0 0 0 11.783761,-21.558096 17.37336,17.37336 0 0 0 -16.67093,-12.485507 z" /><path
     id="path8505"
     style="fill:#35bfa4;fill-opacity:1;fill-rule:evenodd;stroke-width:7.0715;stroke-linecap:round;stroke-linejoin:round"
     d="m 35.81046,18.306912 c -0.436841,0.101882 -1.192189,1.679318 -1.537109,1.619138 -0.367896,-0.0642 -0.741588,-0.11259 -1.119141,-0.14062 -0.297296,-0.0221 -0.598284,-0.0287 -0.90039,-0.0273 v 2.17579 c 4.517311,-0.004 8.43846,3.34938 9.017578,7.94726 0.313652,2.49022 -0.411501,4.87348 -1.837891,6.71094 -1.426356,1.83746 -3.554712,3.12971 -6.044921,3.44336 -4.980442,0.6273 -9.526995,-2.90042 -10.154297,-7.88086 -0.02043,-0.16222 -0.03714,-0.32318 -0.04883,-0.48438 h -2.3125 c 0.01465,0.25611 0.03579,0.51287 0.06836,0.77149 0.04857,0.3856 0.117328,0.76407 0.203125,1.13476 0.086,0.37068 -1.68489,1.29995 -1.542969,1.71485 0.141961,0.41489 0.303693,0.8193 0.484375,1.21289 0.180691,0.39358 0.380695,0.77612 0.597656,1.14648 0.216972,0.37036 2.07898,-0.34933 2.292969,-0.0547 0.214018,0.29465 0.442882,0.57806 0.683594,0.84961 0.240692,0.27156 0.494491,0.53052 0.759766,0.77735 0.265263,0.24683 0.542381,0.4807 0.830078,0.70117 0.287705,0.22047 0.586543,0.42861 0.894531,0.62109 0.308018,0.19248 -0.315749,2.06896 0.06641,2.25977 0.38215,0.19081 0.772869,0.36339 1.173828,0.51758 0.400942,0.15419 0.811262,0.28864 1.228516,0.40429 0.417241,0.11566 1.251226,-1.68137 1.619141,-1.61718 0.367894,0.0642 0.741599,0.11259 1.11914,0.14062 0.377552,0.028 0.759454,0.0371 1.144531,0.0273 0.385069,-0.01 0.773617,-0.0387 1.164063,-0.0879 0.390443,-0.0492 0.772968,-0.11709 1.148437,-0.20312 0.375462,-0.086 1.310079,1.65909 1.730469,1.51758 0.420391,-0.14152 0.831543,-0.30268 1.230469,-0.48242 0.398923,-0.17975 0.786568,-0.37825 1.162109,-0.59375 0.375533,-0.21551 -0.34771,-2.05328 -0.04883,-2.26563 0.298886,-0.21235 0.585723,-0.43908 0.861328,-0.67773 0.275606,-0.23866 0.540358,-0.48911 0.791016,-0.75196 0.250658,-0.26284 0.486899,-0.53734 0.710937,-0.82226 0.224049,-0.28493 0.435088,-0.58182 0.63086,-0.88672 0.195773,-0.3049 2.092813,0.30588 2.287109,-0.0723 0.194327,-0.37815 0.371997,-0.7655 0.529297,-1.16211 0.1573,-0.39661 0.293761,-0.80225 0.412109,-1.21484 0.118337,-0.41259 -1.696959,-1.23202 -1.630859,-1.5957 0.06612,-0.36369 0.114985,-0.73237 0.144531,-1.10547 0.02951,-0.3731 0.03992,-0.75045 0.03125,-1.13086 -0.0086,-0.38042 -0.03737,-0.76283 -0.08594,-1.14844 -0.04857,-0.3856 -0.115375,-0.76602 -0.201172,-1.13672 -0.086,-0.37067 1.682946,-1.29799 1.541015,-1.71289 -0.141958,-0.41489 -0.303695,-0.8193 -0.484374,-1.21289 -0.180692,-0.39358 -0.380694,-0.77612 -0.597657,-1.14648 -0.216972,-0.37036 -2.078961,0.34933 -2.292969,0.0547 -0.214007,-0.29464 -0.442881,-0.57805 -0.683593,-0.8496 -0.240702,-0.27156 -0.494491,-0.53052 -0.759766,-0.77735 -0.265265,-0.24683 -0.542361,-0.4807 -0.830078,-0.70117 -0.287697,-0.22047 -0.584579,-0.42861 -0.892578,-0.62109 -0.308018,-0.19249 0.315739,-2.06896 -0.06641,-2.25977 -0.382161,-0.19081 -0.774821,-0.36339 -1.175782,-0.51758 -0.400949,-0.154185 -0.811274,-0.288642 -1.228515,-0.404295 -0.02608,-0.0072 -0.05291,-0.0087 -0.08203,-0.002 z" /><path
     id="path8507"
     style="font-size:140.705px;line-height:1.25;letter-spacing:0px;word-spacing:0px;fill:#35bfa4;fill-rule:evenodd;stroke-width:1.19381;stroke-linecap:round;stroke-linejoin:round;paint-order:stroke fill markers"
     d="m 6.119592,3.1486533 c -1.322723,0 -2.387596,1.064873 -2.387596,2.387606 V 27.02467 c 0,1.32272 1.064873,2.3876 2.387596,2.3876 h 4.775213 V 10.311451 h 9.550397 V 3.1486533 Z m 16.713216,0 V 29.41227 h 4.775212 c 1.322724,0 2.387587,-1.06488 2.387587,-2.3876 V 5.5362593 c 0,-1.322733 -1.064863,-2.387606 -2.387587,-2.387606 z M 13.28241,12.699058 V 29.41227 h 7.162792 V 12.699058 Z"
     inkscape:label="M" /><path
     id="path10613"
     style="font-size:140.705px;line-height:1.25;letter-spacing:0px;word-spacing:0px;opacity:0.2;fill:#ffffff;fill-rule:evenodd;stroke-width:1.19381;stroke-linecap:round;stroke-linejoin:round;paint-order:stroke fill markers"
     inkscape:label="M"
     d="m 6.119575,3.1484193 c -1.322722,0 -2.386719,1.065941 -2.386719,2.388672 v 1 c 0,-1.322731 1.063997,-2.388672 2.386719,-2.388672 h 14.326172 v -1 z m 16.71289,0 v 1 h 4.775391 c 1.322723,0 2.388672,1.065941 2.388672,2.388672 v -1 c 0,-1.322731 -1.065949,-2.388672 -2.388672,-2.388672 z m -9.550781,9.5507817 v 1 h 7.164063 v -1 z" /></svg>
