<?xml version="1.0" encoding="UTF-8" standalone="no"?>
<!-- Created with Inkscape (http://www.inkscape.org/) -->

<svg
   width="163.51134"
   height="194.76956"
   viewBox="0 0 163.51136 194.76957"
   version="1.1"
   id="svg8"
   inkscape:version="1.2 (dc2aedaf03, 2022-05-15)"
   sodipodi:docname="mascot.svg"
   xmlns:inkscape="http://www.inkscape.org/namespaces/inkscape"
   xmlns:sodipodi="http://sodipodi.sourceforge.net/DTD/sodipodi-0.dtd"
   xmlns:xlink="http://www.w3.org/1999/xlink"
   xmlns="http://www.w3.org/2000/svg"
   xmlns:svg="http://www.w3.org/2000/svg"
   xmlns:rdf="http://www.w3.org/1999/02/22-rdf-syntax-ns#"
   xmlns:cc="http://creativecommons.org/ns#"
   xmlns:dc="http://purl.org/dc/elements/1.1/">
  <defs
     id="defs2">
    <linearGradient
       inkscape:collect="always"
       xlink:href="#linearGradient97461"
       id="linearGradient210595"
       gradientUnits="userSpaceOnUse"
       gradientTransform="matrix(0.09181343,0.24075339,-0.24075339,0.09181343,448.9335,552.53959)"
       x1="-1889.2522"
       y1="519.47839"
       x2="-2050.3433"
       y2="541.32788" />
    <linearGradient
       inkscape:collect="always"
       id="linearGradient97461">
      <stop
         style="stop-color:#cccccc;stop-opacity:1"
         offset="0"
         id="stop97457" />
      <stop
         style="stop-color:#e6e6e6;stop-opacity:1"
         offset="1"
         id="stop97459" />
    </linearGradient>
    <linearGradient
       inkscape:collect="always"
       xlink:href="#linearGradient275394"
       id="linearGradient210593"
       gradientUnits="userSpaceOnUse"
       gradientTransform="matrix(0.23869956,0.09325693,-0.09325693,0.23869956,179.65323,9.8610177)"
       x1="350.4982"
       y1="283.14035"
       x2="505.82822"
       y2="952.06641" />
    <linearGradient
       inkscape:collect="always"
       id="linearGradient275394">
      <stop
         style="stop-color:#24282c;stop-opacity:1;"
         offset="0"
         id="stop275390" />
      <stop
         style="stop-color:#000000;stop-opacity:1"
         offset="1"
         id="stop275392" />
    </linearGradient>
    <linearGradient
       inkscape:collect="always"
       xlink:href="#linearGradient6008"
       id="linearGradient210591"
       gradientUnits="userSpaceOnUse"
       gradientTransform="matrix(0.24644286,0.09628214,-0.09628214,0.24644286,440.26325,108.69025)"
       x1="-805.84595"
       y1="764.44513"
       x2="-771.58569"
       y2="593.95886" />
    <linearGradient
       inkscape:collect="always"
       id="linearGradient6008">
      <stop
         style="stop-color:#cccccc;stop-opacity:1"
         offset="0"
         id="stop6004" />
      <stop
         style="stop-color:#f2f2f2;stop-opacity:1"
         offset="1"
         id="stop6006" />
    </linearGradient>
    <linearGradient
       inkscape:collect="always"
       xlink:href="#linearGradient215970"
       id="linearGradient210587"
       gradientUnits="userSpaceOnUse"
       gradientTransform="matrix(0.29255449,0,0,0.29255449,154.25212,-8.836104)"
       x1="146.51627"
       y1="403.08319"
       x2="165.59502"
       y2="377.1142" />
    <linearGradient
       inkscape:collect="always"
       id="linearGradient215970">
      <stop
         style="stop-color:#008080;stop-opacity:1"
         offset="0"
         id="stop215966" />
      <stop
         style="stop-color:#333333;stop-opacity:0;"
         offset="1"
         id="stop215968" />
    </linearGradient>
    <linearGradient
       inkscape:collect="always"
       xlink:href="#linearGradient97461"
       id="linearGradient887"
       gradientUnits="userSpaceOnUse"
       gradientTransform="matrix(0.21012706,0.14912585,-0.14912585,0.21012706,555.50608,368.71067)"
       x1="-1889.2522"
       y1="519.47839"
       x2="-2050.3433"
       y2="541.32788" />
    <linearGradient
       inkscape:collect="always"
       xlink:href="#linearGradient167524"
       id="linearGradient211630"
       gradientUnits="userSpaceOnUse"
       gradientTransform="matrix(0.28093386,0,0,0.28093386,-291.05007,53.052178)"
       x1="307.0033"
       y1="402.83612"
       x2="325.54938"
       y2="368.49637" />
    <linearGradient
       inkscape:collect="always"
       id="linearGradient167524">
      <stop
         style="stop-color:#008080;stop-opacity:1"
         offset="0"
         id="stop167520" />
      <stop
         style="stop-color:#1a1a1a;stop-opacity:0;"
         offset="1"
         id="stop167522" />
    </linearGradient>
    <linearGradient
       inkscape:collect="always"
       xlink:href="#linearGradient377614"
       id="linearGradient504545"
       gradientUnits="userSpaceOnUse"
       gradientTransform="matrix(0.24780728,0.09271402,-0.09271402,0.24780728,438.68188,104.65567)"
       x1="-792.73834"
       y1="699.15863"
       x2="-659.53918"
       y2="567.05298" />
    <linearGradient
       inkscape:collect="always"
       id="linearGradient377614">
      <stop
         style="stop-color:#3c7038;stop-opacity:1"
         offset="0"
         id="stop377610" />
      <stop
         style="stop-color:#44883c;stop-opacity:1"
         offset="1"
         id="stop377612" />
    </linearGradient>
  </defs>
  <sodipodi:namedview
     id="base"
     pagecolor="#525252"
     bordercolor="#404040"
     borderopacity="1"
     inkscape:pageopacity="0"
     inkscape:pageshadow="2"
     inkscape:zoom="0.98994949"
     inkscape:cx="-242.94169"
     inkscape:cy="42.426407"
     inkscape:document-units="px"
     inkscape:current-layer="layer1"
     showgrid="false"
     inkscape:window-width="1914"
     inkscape:window-height="1047"
     inkscape:window-x="315"
     inkscape:window-y="201"
     inkscape:window-maximized="0"
     inkscape:pagecheckerboard="0"
     units="px"
     fit-margin-top="0"
     fit-margin-left="0"
     fit-margin-right="0"
     fit-margin-bottom="0"
     inkscape:showpageshadow="2"
     inkscape:deskcolor="#525252" />
  <metadata
     id="metadata5">
    <rdf:RDF>
      <cc:Work
         rdf:about="">
        <dc:format>image/svg+xml</dc:format>
        <dc:type
           rdf:resource="http://purl.org/dc/dcmitype/StillImage" />
      </cc:Work>
    </rdf:RDF>
  </metadata>
  <g
     inkscape:label="Layer 1"
     inkscape:groupmode="layer"
     id="layer1"
     transform="translate(-969.77303,-855.1601)">
    <g
       id="g218590"
       transform="matrix(0.73201218,0,0,0.73201218,883.23312,831.98635)"
       style="display:inline">
      <path
         style="color:#000000;fill:#000000;fill-opacity:1;fill-rule:evenodd;stroke-width:0.264583;stroke-linecap:round;stroke-linejoin:round;-inkscape-stroke:none;paint-order:markers fill stroke"
         d="m 170.13977,156.7364 c 0.51007,-0.40227 0.98546,-0.88281 1.41076,-1.43997 3.40235,-4.45729 6.38254,-10.49442 -1.91827,-14.29068 -1.52153,-0.69583 -3.05491,0.69521 -8.14084,-6.43705 -3.26985,-4.58551 -5.30739,-8.76792 -5.50049,-15.45917 -0.60551,-20.978166 21.50806,-22.426746 4.32416,-29.188355 -9.61127,-3.781925 -26.02705,-3.385903 -34.01382,3.163319 -13.58672,11.141256 -6.94591,19.535906 -2.29357,28.093626 9.22462,16.96809 20.32993,23.92459 34.78217,35.08123 1.94241,1.48265 4.90447,4.10605 7.20428,4.39019 1.72481,0.21315 2.61552,-2.70619 4.14562,-3.91314 z"
         id="path210519-4"
         sodipodi:nodetypes="sssssssscss" />
      <path
         style="color:#000000;fill:url(#linearGradient210595);fill-opacity:1;fill-rule:evenodd;stroke-width:3.70819;stroke-linecap:round;stroke-linejoin:round;-inkscape-stroke:none;paint-order:markers fill stroke"
         d="m 155.54023,99.424494 c -2.18853,-2.05119 -6.82051,1.156766 -12.06798,8.031256 -5.24746,6.87453 -16.1681,4.95796 -13.59981,11.47945 5.55132,14.09611 18.84977,23.44552 32.3243,33.79675 3.36815,2.57098 4.19155,5.02198 6.76257,1.65386 2.57098,-3.36815 2.0167,-7.47505 -1.62325,-9.64429 -5.87568,-3.50164 -12.88046,-11.13453 -15.5539,-23.43153 -2.87567,-13.22709 7.23,-18.63138 3.75807,-21.885496 z"
         id="path210521-9"
         sodipodi:nodetypes="ssscssss" />
      <path
         style="color:#000000;display:inline;fill:#000000;fill-opacity:1;fill-rule:evenodd;stroke-width:0.264583;stroke-linecap:round;stroke-linejoin:round;-inkscape-stroke:none;paint-order:markers fill stroke"
         d="m 257.76375,58.454751 c -28.44543,-11.106234 -60.52022,2.465198 -72.50161,30.328286 -9.48642,2.236157 -17.36197,8.933027 -20.9554,18.077353 a 3.3076224,3.3076224 0 0 0 -0.004,0.007 c -4.71513,12.07607 -1.0427,25.72738 8.78873,33.85573 l -20.37358,43.13762 a 3.3076224,3.3076224 0 0 0 -0.0342,0.0743 c -10.85317,24.52726 -7.82415,48.56313 4.01013,68.43877 11.83421,19.8756 32.26368,35.74362 56.29243,45.13134 a 3.3076224,3.3076224 0 0 0 4.28408,-1.87697 l 49.04323,-125.52939 c 14.98008,5.0508 31.51481,-2.51428 37.32662,-17.39024 4.97111,-12.73421 0.59579,-27.15002 -10.34847,-35.04651 2.96146,-25.41383 -11.53482,-49.823673 -35.52772,-59.205961 a 3.3076224,3.3076224 0 0 0 -0.003,-3.05e-4 z"
         id="path210523-9" />
      <path
         style="color:#000000;display:inline;fill:url(#linearGradient210593);fill-opacity:1;fill-rule:evenodd;stroke-width:6.40675;stroke-linecap:round;stroke-linejoin:round;-inkscape-stroke:none;paint-order:markers fill stroke"
         d="m 254.44262,62.922384 a 51.575654,51.575654 0 0 0 -66.7392,29.12618 25.711532,25.711532 0 0 0 -19.63475,15.946376 25.711532,25.711532 0 0 0 9.5359,30.64301 l -20.84408,44.13406 c -20.23145,45.7213 11.23529,87.98128 56.64398,105.72189 l 47.97212,-122.78901 c 0.25165,-0.64408 0.45751,-1.29402 0.6491,-1.94479 a 25.711532,25.711532 0 0 0 1.72902,0.89743 25.711532,25.711532 0 0 0 33.30519,-14.59226 25.711532,25.711532 0 0 0 -10.4318,-31.22033 51.575654,51.575654 0 0 0 -32.18548,-55.922556 z"
         id="path210525-3" />
      <circle
         style="display:inline;fill:#000000;fill-rule:evenodd;stroke-width:0.501018;stroke-linecap:round;stroke-linejoin:round;paint-order:markers fill stroke"
         id="circle210527"
         cx="-247.85736"
         cy="50.898186"
         r="4.7567234"
         transform="matrix(-0.99831138,0.05808949,0.05808949,0.99831138,0,0)" />
      <path
         id="path210529"
         style="display:inline;fill:url(#linearGradient210591);fill-opacity:1;fill-rule:evenodd;stroke-width:14.3814;stroke-linecap:round;stroke-linejoin:round;paint-order:markers fill stroke"
         d="m 251.73271,95.098224 -16.597,-5.57934 c -7.29693,-2.452976 -15.0381,1.48145 -17.35722,8.82202 l -10.35906,32.837936 -3.27205,-1.10804 13.58422,-42.540664 c 2.32908,-7.293722 -1.33342,-14.186032 -8.21211,-15.453418 -6.87865,-1.26738 -14.29127,3.584351 -16.62036,10.878072 l -15.00954,47.00257 c -1.44752,4.53301 -0.57811,8.90876 1.93672,11.87768 -1.48533,0.36698 -2.92656,0.82532 -4.27586,1.4286 l -19.84066,42.00932 c -18.10219,40.90947 3.89548,79.12229 40.59729,100.51214 8.64052,-1.23242 15.5766,-5.61974 15.1618,-12.96419 -2.29111,-40.56574 16.35535,-63.41746 34.02672,-87.09444 6.52829,-8.74694 -0.88871,-21.66598 -12.34891,-28.40258 7.00064,1.80962 14.16961,-2.07978 16.38608,-9.09549 l 11.18516,-35.45231 c 2.31913,-7.34056 -1.68832,-15.224906 -8.98522,-17.677866 z"
         sodipodi:nodetypes="ccccccsccccccsscccc" />
      <g
         id="g210535"
         transform="matrix(0.29106747,0.07493277,-0.07493277,0.29106747,176.91353,-10.258633)"
         style="display:inline;fill:#24282c;fill-opacity:1">
        <path
           style="color:#000000;fill:#24282c;fill-opacity:1;fill-rule:evenodd;stroke-width:9.05993;stroke-linecap:round;stroke-linejoin:round;-inkscape-stroke:none;paint-order:markers fill stroke"
           d="m 263.19617,447.2113 c 1e-5,8.60278 -17.48849,15.90448 -36.5586,16.19052 -17.88353,0.26825 -48.73412,-3.58081 -64.30051,-16.19052 -6.68471,-5.41502 24.83095,-20.0435 52.68242,-20.0435 27.85146,10e-6 48.17668,11.44072 48.17669,20.0435 z"
           id="path210531" />
        <path
           style="color:#000000;fill:#24282c;fill-opacity:1;fill-rule:evenodd;stroke-linecap:round;stroke-linejoin:round;-inkscape-stroke:none;paint-order:markers fill stroke"
           d="m 215.01953,422.63867 c -14.71881,0 -29.93599,3.76874 -41.01758,8.33203 -5.54079,2.28165 -10.00417,4.674 -13.14453,7.40821 -1.57018,1.3671 -2.95757,2.79028 -3.65625,5.11132 -0.69868,2.32105 0.38559,5.70147 2.28516,7.24024 17.49074,14.16855 48.60735,17.48034 67.21875,17.20117 10.09224,-0.15138 19.69635,-2.10393 27.16797,-5.35156 3.73581,-1.62382 6.95853,-3.5594 9.46289,-6.01367 2.50435,-2.45428 4.39063,-5.66996 4.39062,-9.35547 0,-3.93447 -2.12198,-7.21857 -4.97851,-10.00391 -2.85654,-2.78534 -6.6694,-5.22895 -11.30469,-7.35937 -9.27058,-4.26086 -21.87785,-7.20898 -36.42383,-7.20899 z m 0,9.0586 c 13.30545,0 24.78575,2.77262 32.64063,6.38281 3.92744,1.80509 6.93692,3.83396 8.76171,5.61328 1.8248,1.77932 2.24415,3.15066 2.24415,3.51758 0,0.61587 -0.3012,1.5415 -1.67188,2.88476 -1.37067,1.34327 -3.71235,2.86307 -6.73242,4.17578 -6.04014,2.62542 -14.71356,4.4669 -23.69141,4.60157 -16.43488,0.24652 -45.0348,-3.83895 -59.41601,-13.89258 1.85635,-1.52579 5.52331,-3.66711 10.29687,-5.63281 9.96791,-4.1047 24.43573,-7.65039 37.56836,-7.65039 z"
           id="path210533-8" />
      </g>
      <circle
         style="display:inline;fill:#000000;fill-rule:evenodd;stroke-width:0.923877;stroke-linecap:round;stroke-linejoin:round;paint-order:markers fill stroke"
         id="circle210537"
         cx="218.05551"
         cy="62.71986"
         r="8.7714052"
         transform="rotate(15.032412)" />
      <path
         id="path210541-3"
         style="display:inline;fill:#000000;fill-rule:evenodd;stroke:#000000;stroke-width:0.264583"
         d="m 254.2804,36.469492 c 4.98632,-3.820078 11.87994,-0.402984 14.47299,4.573801 4.2266,8.112058 -0.89492,17.714914 -8.80203,21.098809 -5.39462,2.308651 12.49933,3.832346 7.30147,1.192062 4.12526,-4.593055 6.13102,-10.981067 4.90764,-17.082041 -1.67095,-8.333027 -9.92525,-15.250663 -18.63116,-12.788185 l 0.75109,3.005554"
         sodipodi:nodetypes="csccscc" />
      <path
         id="path210543-2"
         style="display:inline;fill:#d45500;fill-rule:evenodd;stroke:none;stroke-width:2.39711;stroke-linecap:round;stroke-linejoin:round;paint-order:markers fill stroke"
         d="m 217.2838,138.70258 c -0.56748,2.20429 -5.53016,2.9216 -10.43536,1.73693 -4.59995,-1.11091 -12.25087,-4.13219 -15.40762,-8.38995 -1.35562,-1.82844 7.68453,-3.49781 14.82086,-1.66062 7.13636,1.83719 11.58959,6.10936 11.02212,8.31364 z"
         sodipodi:nodetypes="sssss" />
      <circle
         style="display:inline;fill:url(#linearGradient210587);fill-opacity:1;fill-rule:evenodd;stroke-width:0.708581;stroke-linecap:round;stroke-linejoin:round;paint-order:markers fill stroke"
         id="circle210547"
         cx="200.80199"
         cy="105.64348"
         r="6.727354"
         transform="rotate(3.3301573)" />
      <path
         id="path210549"
         style="display:inline;fill:#ffe6d5;stroke:none;stroke-width:0.175027px;stroke-linecap:butt;stroke-linejoin:miter;stroke-opacity:1"
         d="m 205.3136,132.45965 c -0.29097,-0.11164 -0.57171,-0.17767 -0.81961,-0.19286 l -0.002,-0.008 -7.89939,-0.12295 c 2.97095,0.95661 6.42432,1.7959 9.15683,2.76013 0.77427,0.27041 1.42241,0.19372 1.56637,-0.23412 0.17993,-0.53592 -0.49806,-1.4201 -1.51438,-1.97496 -0.16085,-0.0879 -0.32474,-0.16414 -0.48745,-0.22701 z"
         sodipodi:nodetypes="ccccccsc" />
      <circle
         style="display:inline;fill:#000000;fill-rule:evenodd;stroke-width:0.583012;stroke-linecap:round;stroke-linejoin:round;paint-order:markers fill stroke"
         id="circle210551"
         cx="219.72382"
         cy="60.341396"
         r="5.535172"
         transform="rotate(15.032412)" />
      <ellipse
         style="display:inline;fill:#ffffff;fill-rule:evenodd;stroke-width:0.114886;stroke-linecap:round;stroke-linejoin:round;paint-order:markers fill stroke"
         id="ellipse210555"
         cx="257.61804"
         cy="-41.468517"
         transform="matrix(0.95666088,0.29120432,-0.11970479,0.99280953,0,0)"
         rx="1.5610961"
         ry="0.76209718" />
      <ellipse
         style="display:inline;fill:#ffffff;fill-rule:evenodd;stroke-width:0.220016;stroke-linecap:round;stroke-linejoin:round;paint-order:markers fill stroke"
         id="ellipse210557"
         cx="179.36545"
         cy="108.37893"
         transform="matrix(0.99968365,0.02515159,0.14977302,0.98872041,0,0)"
         rx="2.9896445"
         ry="1.4594871" />
      <ellipse
         style="display:inline;fill:#000000;fill-rule:evenodd;stroke-width:0.262132;stroke-linecap:round;stroke-linejoin:round;paint-order:markers fill stroke"
         id="ellipse210567"
         cx="292.534"
         cy="61.925274"
         transform="matrix(0.97380366,0.22739047,-0.05387807,0.99854752,0,0)"
         rx="3.5619173"
         ry="1.7388595" />
      <ellipse
         style="display:inline;fill:#000000;fill-rule:evenodd;stroke-width:0.262132;stroke-linecap:round;stroke-linejoin:round;paint-order:markers fill stroke"
         id="ellipse210569"
         cx="287.62018"
         cy="67.467827"
         transform="matrix(0.97380366,0.22739047,-0.05387807,0.99854752,0,0)"
         rx="3.5619173"
         ry="1.7388595" />
      <ellipse
         style="display:inline;fill:#000000;fill-rule:evenodd;stroke-width:0.262132;stroke-linecap:round;stroke-linejoin:round;paint-order:markers fill stroke"
         id="ellipse210571"
         cx="283.82202"
         cy="74.55732"
         transform="matrix(0.97380366,0.22739047,-0.05387807,0.99854752,0,0)"
         rx="3.5619173"
         ry="1.7388595" />
      <path
         style="color:#000000;display:inline;fill:#000000;fill-opacity:1;fill-rule:evenodd;stroke-width:0.264583;stroke-linecap:round;stroke-linejoin:round;-inkscape-stroke:none;paint-order:markers fill stroke"
         d="m 254.55799,248.64642 c 0.003,0.005 0.013,0.0386 0.013,0.0386 l -0.003,0.003 c -0.004,-0.0139 -0.006,-0.0229 -0.0108,-0.0401 z"
         id="path210577" />
      <path
         style="color:#000000;display:inline;fill:#000000;fill-opacity:1;fill-rule:evenodd;stroke-width:0.264583;stroke-linecap:round;stroke-linejoin:round;-inkscape-stroke:none;paint-order:markers fill stroke"
         d="m 254.02532,247.70421 c -2e-5,-4e-5 0.0217,0.0269 0.0254,0.0315 -0.0123,-0.0127 -0.0185,-0.0197 -0.0279,-0.03 0,0 0.003,-0.003 0.003,-0.003 z"
         id="path210579" />
      <g
         id="g891"
         transform="matrix(-1.1031535,-0.35501413,-0.35501413,1.1031535,435.77948,7.0342247)">
        <path
           style="color:#000000;fill:#000000;fill-opacity:1;fill-rule:evenodd;stroke-width:0.264583;stroke-linecap:round;stroke-linejoin:round;-inkscape-stroke:none;paint-order:markers fill stroke"
           d="m 103.76424,194.59743 c 0.20049,-0.61789 0.32864,-1.28158 0.37258,-1.98114 0.35143,-5.59642 -0.5261,-12.27163 -9.536755,-10.81451 -1.65164,0.2671 -2.15335,2.27571 -10.34527,-0.82722 -5.26678,-1.99497 -9.28505,-4.33966 -13.16422,-9.79513 -12.16193,-17.10373 5.41719,-30.59755 -12.62642,-26.66894 -10.09213,2.19731 -23.519336,11.64956 -26.519446,21.53288 -5.10363,16.81308 5.08251,20.10139 13.706156,24.63035 17.09886,8.9799 30.19733,8.59147 48.41248,9.83478 2.43881,0.15312 6.359275,0.68794 8.429145,-0.35395 1.55237,-0.78136 0.67045,-3.70337 1.27175,-5.55712 z"
           id="path883"
           sodipodi:nodetypes="sssssssscss" />
        <path
           style="color:#000000;fill:url(#linearGradient887);fill-opacity:1;fill-rule:evenodd;stroke-width:3.70819;stroke-linecap:round;stroke-linejoin:round;-inkscape-stroke:none;paint-order:markers fill stroke"
           d="m 59.776005,155.06471 c -2.95938,-0.489 -5.02738,4.75215 -5.56941,13.38353 -0.54198,8.63142 -10.68601,13.10717 -4.92656,17.10151 12.44896,8.6337 28.70055,9.01579 45.65529,10.13289 4.22893,0.26555 6.275595,1.84559 6.541205,-2.38334 0.26555,-4.22893 -2.477655,-7.33517 -6.709275,-7.11568 -6.83078,0.35429 -16.89617,-2.09845 -25.95275,-10.83583 -9.7416,-9.39822 -4.34364,-19.50728 -9.0385,-20.28308 z"
           id="path885"
           sodipodi:nodetypes="ssscssss" />
      </g>
      <g
         id="g1710"
         style="opacity:1"
         transform="matrix(-1,0,0,1,459.06029,0.0539454)">
        <circle
           style="display:inline;fill:#000000;fill-rule:evenodd;stroke-width:1.10073;stroke-linecap:round;stroke-linejoin:round;paint-order:markers fill stroke"
           id="circle211580"
           cx="-201.87486"
           cy="160.91171"
           r="10.450413"
           transform="matrix(-0.98718844,0.15955873,0.15955873,0.98718844,0,0)" />
        <circle
           style="display:inline;fill:url(#linearGradient211630);fill-opacity:1;fill-rule:evenodd;stroke-width:0.850747;stroke-linecap:round;stroke-linejoin:round;paint-order:markers fill stroke"
           id="circle211586"
           cx="-201.87483"
           cy="160.91167"
           r="8.0770741"
           transform="matrix(-0.98718844,0.15955873,0.15955873,0.98718844,0,0)" />
        <circle
           style="display:inline;fill:#000000;fill-rule:evenodd;stroke-width:0.718103;stroke-linecap:round;stroke-linejoin:round;paint-order:markers fill stroke"
           id="circle211594"
           cx="-200.60594"
           cy="158.41219"
           r="6.8177404"
           transform="matrix(-0.98718844,0.15955873,0.15955873,0.98718844,0,0)" />
        <ellipse
           style="display:inline;fill:#ffffff;fill-rule:evenodd;stroke-width:0.262132;stroke-linecap:round;stroke-linejoin:round;paint-order:markers fill stroke"
           id="ellipse211600"
           cx="-232.36673"
           cy="149.72731"
           transform="matrix(-0.99191138,0.12693233,-0.04819858,0.99883777,0,0)"
           rx="3.5619173"
           ry="1.7388595" />
      </g>
      <path
         id="path504533"
         style="display:inline;fill:url(#linearGradient504545);fill-opacity:1;fill-rule:evenodd;stroke:none;stroke-width:2.067;stroke-linecap:round;stroke-linejoin:miter;stroke-miterlimit:4;stroke-dasharray:6.20101, 6.20101;stroke-dashoffset:0;stroke-opacity:1"
         d="m 170.8393,167.89218 c -10.52056,17.10051 -13.30366,30.22045 -16.68024,44.58319 l 13.95356,6.90217 c 2.60806,-12.97331 6.96627,-24.90203 13.33157,-35.63283 l 17.8641,5.65956 6.80955,-13.69277 c -12.79609,-3.83899 -25.27486,-7.30067 -35.27854,-7.81932 z m 39.05267,8.93594 c -7.79197,16.95333 -15.65062,33.84952 -21.92588,52.10279 l 15.87933,6.59255 c 6.01515,-17.22406 14.05247,-35.26484 24.99917,-51.60445 z m -26.55636,11.06934 c -5.70808,10.34722 -9.25605,21.59599 -12.35809,33.03086 l 14.05243,6.63784 c 3.10074,-11.65377 7.29762,-23.35848 13.14719,-35.13998 z"
         sodipodi:nodetypes="ccccccccccccccccc" />
    </g>
  </g>
</svg>
